<svg width="30" height="30" viewBox="0 0 30 30" fill="none" xmlns="http://www.w3.org/2000/svg">
<rect x="0.5" y="0.5" width="29" height="29" rx="14.5" stroke="#797979"/>
<path fill-rule="evenodd" clip-rule="evenodd" d="M15 4.5C15.8284 4.5 16.5 5.17157 16.5 6V13.5H24C24.8284 13.5 25.5 14.1716 25.5 15C25.5 15.8284 24.8284 16.5 24 16.5H16.5V24C16.5 24.8284 15.8284 25.5 15 25.5C14.1716 25.5 13.5 24.8284 13.5 24V16.5H6C5.17157 16.5 4.5 15.8284 4.5 15C4.5 14.1716 5.17157 13.5 6 13.5L13.5 13.5V6C13.5 5.17157 14.1716 4.5 15 4.5Z" fill="#262E3A"/>
</svg>
